<svg id="visual" viewBox="0 0 900 600" width="900" height="600" xmlns="http://www.w3.org/2000/svg" xmlns:xlink="http://www.w3.org/1999/xlink" version="1.1"><rect x="0" y="0" width="900" height="600" fill="#00A36C"></rect><path d="M406 600L402 600L402 581L381 581L381 561L466 561L466 542L523 542L523 523L535 523L535 503L475 503L475 484L519 484L519 465L392 465L392 445L461 445L461 426L457 426L457 406L450 406L450 387L412 387L412 368L491 368L491 348L389 348L389 329L413 329L413 310L498 310L498 290L427 290L427 271L474 271L474 252L505 252L505 232L401 232L401 213L380 213L380 194L369 194L369 174L481 174L481 155L507 155L507 135L413 135L413 116L540 116L540 97L540 97L540 77L523 77L523 58L497 58L497 39L456 39L456 19L422 19L422 0L900 0L900 19L900 19L900 39L900 39L900 58L900 58L900 77L900 77L900 97L900 97L900 116L900 116L900 135L900 135L900 155L900 155L900 174L900 174L900 194L900 194L900 213L900 213L900 232L900 232L900 252L900 252L900 271L900 271L900 290L900 290L900 310L900 310L900 329L900 329L900 348L900 348L900 368L900 368L900 387L900 387L900 406L900 406L900 426L900 426L900 445L900 445L900 465L900 465L900 484L900 484L900 503L900 503L900 523L900 523L900 542L900 542L900 561L900 561L900 581L900 581L900 600L900 600Z" fill="#FF964F" stroke-linecap="square" stroke-linejoin="miter"></path></svg>