<svg id="visual" viewBox="0 0 900 600" width="900" height="600" xmlns="http://www.w3.org/2000/svg" xmlns:xlink="http://www.w3.org/1999/xlink" version="1.1"><rect x="0" y="0" width="900" height="600" fill="#00A36C"></rect><path d="M436 600L457 595C478 590 520 580 525.2 570C530.3 560 498.7 550 501.8 540C505 530 543 520 518 510C493 500 405 490 377.8 480C350.7 470 384.3 460 422 450C459.7 440 501.3 430 513 420C524.7 410 506.3 400 476.2 390C446 380 404 370 415.2 360C426.3 350 490.7 340 520.5 330C550.3 320 545.7 310 534.5 300C523.3 290 505.7 280 474.8 270C444 260 400 250 371.8 240C343.7 230 331.3 220 360.3 210C389.3 200 459.7 190 463 180C466.3 170 402.7 160 392.3 150C382 140 425 130 462 120C499 110 530 100 541.2 90C552.3 80 543.7 70 516 60C488.3 50 441.7 40 445.2 30C448.7 20 502.3 10 529.2 5L556 0L900 0L900 5C900 10 900 20 900 30C900 40 900 50 900 60C900 70 900 80 900 90C900 100 900 110 900 120C900 130 900 140 900 150C900 160 900 170 900 180C900 190 900 200 900 210C900 220 900 230 900 240C900 250 900 260 900 270C900 280 900 290 900 300C900 310 900 320 900 330C900 340 900 350 900 360C900 370 900 380 900 390C900 400 900 410 900 420C900 430 900 440 900 450C900 460 900 470 900 480C900 490 900 500 900 510C900 520 900 530 900 540C900 550 900 560 900 570C900 580 900 590 900 595L900 600Z" fill="#fff07b" stroke-linecap="round" stroke-linejoin="miter"></path></svg>