<svg id="visual" viewBox="0 0 900 600" width="900" height="600" xmlns="http://www.w3.org/2000/svg" xmlns:xlink="http://www.w3.org/1999/xlink" version="1.1"><rect x="0" y="0" width="900" height="600" fill="#b7c9e2"></rect><path d="M459 600L450 596.8C441 593.7 423 587.3 411.3 580.8C399.7 574.3 394.3 567.7 402 561.2C409.7 554.7 430.3 548.3 431.5 542C432.7 535.7 414.3 529.3 425.2 522.8C436 516.3 476 509.7 491.7 503.2C507.3 496.7 498.7 490.3 477.3 484C456 477.7 422 471.3 402.7 464.8C383.3 458.3 378.7 451.7 382.2 445.2C385.7 438.7 397.3 432.3 420.2 425.8C443 419.3 477 412.7 483.7 406.2C490.3 399.7 469.7 393.3 465.2 387C460.7 380.7 472.3 374.3 487 367.8C501.7 361.3 519.3 354.7 525.2 348.2C531 341.7 525 335.3 497.3 329C469.7 322.7 420.3 316.3 423.7 309.8C427 303.3 483 296.7 502 290.2C521 283.7 503 277.3 499.7 271C496.3 264.7 507.7 258.3 490.2 251.8C472.7 245.3 426.3 238.7 403.7 232.2C381 225.7 382 219.3 386 213C390 206.7 397 200.3 422.8 193.8C448.7 187.3 493.3 180.7 487.3 174.2C481.3 167.7 424.7 161.3 422.7 154.8C420.7 148.3 473.3 141.7 498.7 135.2C524 128.7 522 122.3 500.3 116C478.7 109.7 437.3 103.3 436.2 96.8C435 90.3 474 83.7 481.3 77.2C488.7 70.7 464.3 64.3 468.8 58C473.3 51.7 506.7 45.3 502.8 38.8C499 32.3 458 25.7 456.2 19.2C454.3 12.7 491.7 6.3 510.3 3.2L529 0L900 0L900 3.2C900 6.3 900 12.7 900 19.2C900 25.7 900 32.3 900 38.8C900 45.3 900 51.7 900 58C900 64.3 900 70.7 900 77.2C900 83.7 900 90.3 900 96.8C900 103.3 900 109.7 900 116C900 122.3 900 128.7 900 135.2C900 141.7 900 148.3 900 154.8C900 161.3 900 167.7 900 174.2C900 180.7 900 187.3 900 193.8C900 200.3 900 206.7 900 213C900 219.3 900 225.7 900 232.2C900 238.7 900 245.3 900 251.8C900 258.3 900 264.7 900 271C900 277.3 900 283.7 900 290.2C900 296.7 900 303.3 900 309.8C900 316.3 900 322.7 900 329C900 335.3 900 341.7 900 348.2C900 354.7 900 361.3 900 367.8C900 374.3 900 380.7 900 387C900 393.3 900 399.7 900 406.2C900 412.7 900 419.3 900 425.8C900 432.3 900 438.7 900 445.2C900 451.7 900 458.3 900 464.8C900 471.3 900 477.7 900 484C900 490.3 900 496.7 900 503.2C900 509.7 900 516.3 900 522.8C900 529.3 900 535.7 900 542C900 548.3 900 554.7 900 561.2C900 567.7 900 574.3 900 580.8C900 587.3 900 593.7 900 596.8L900 600Z" fill="#fd7f78" stroke-linecap="round" stroke-linejoin="miter"></path></svg>