<svg id="visual" viewBox="0 0 900 600" width="900" height="600" xmlns="http://www.w3.org/2000/svg" xmlns:xlink="http://www.w3.org/1999/xlink" version="1.1"><rect x="0" y="0" width="900" height="600" fill="#B7C9E2"></rect><path d="M376 600L397 600L397 550L369 550L369 500L526 500L526 450L402 450L402 400L473 400L473 350L465 350L465 300L439 300L439 250L376 250L376 200L508 200L508 150L525 150L525 100L441 100L441 50L432 50L432 0L900 0L900 50L900 50L900 100L900 100L900 150L900 150L900 200L900 200L900 250L900 250L900 300L900 300L900 350L900 350L900 400L900 400L900 450L900 450L900 500L900 500L900 550L900 550L900 600L900 600Z" fill="#fd7f78" stroke-linecap="square" stroke-linejoin="miter"></path></svg>