<svg id="visual" viewBox="0 0 900 600" width="900" height="600" xmlns="http://www.w3.org/2000/svg" xmlns:xlink="http://www.w3.org/1999/xlink" version="1.1"><rect x="0" y="0" width="900" height="600" fill="#D291BC"></rect><path d="M385 600L537 600L537 545L417 545L417 491L382 491L382 436L471 436L471 382L524 382L524 327L375 327L375 273L476 273L476 218L370 218L370 164L369 164L369 109L438 109L438 55L422 55L422 0L900 0L900 55L900 55L900 109L900 109L900 164L900 164L900 218L900 218L900 273L900 273L900 327L900 327L900 382L900 382L900 436L900 436L900 491L900 491L900 545L900 545L900 600L900 600Z" fill="#FFB6C1" stroke-linecap="square" stroke-linejoin="miter"></path></svg>