<svg id="visual" viewBox="0 0 900 600" width="900" height="600" xmlns="http://www.w3.org/2000/svg" xmlns:xlink="http://www.w3.org/1999/xlink" version="1.1"><rect x="0" y="0" width="900" height="600" fill="#fff"></rect><defs><linearGradient id="grad1_0" x1="33.3%" y1="0%" x2="100%" y2="100%"><stop offset="20%" stop-color="#ffffff" stop-opacity="1"></stop><stop offset="80%" stop-color="#ffffff" stop-opacity="1"></stop></linearGradient></defs><defs><linearGradient id="grad2_0" x1="0%" y1="0%" x2="66.7%" y2="100%"><stop offset="20%" stop-color="#ffffff" stop-opacity="1"></stop><stop offset="80%" stop-color="#ffffff" stop-opacity="1"></stop></linearGradient></defs><g transform="translate(900, 0)"><path d="M0 297.5C-56.3 292.1 -112.5 286.8 -148.7 257.6C-184.9 228.4 -201.1 175.4 -222.6 128.5C-244 81.6 -270.7 40.8 -297.5 0L0 0Z" fill="#fd49a0"></path></g><g transform="translate(0, 600)"><path d="M0 -297.5C60.8 -294.7 121.5 -292 148.7 -257.6C175.9 -223.2 169.6 -157.2 188.8 -109C208 -60.8 252.7 -30.4 297.5 0L0 0Z" fill="#fd49a0"></path></g></svg>