<svg id="visual" viewBox="0 0 900 600" width="900" height="600" xmlns="http://www.w3.org/2000/svg" xmlns:xlink="http://www.w3.org/1999/xlink" version="1.1"><rect x="0" y="0" width="900" height="600" fill="#fd7f78"></rect><path d="M441 600L447.5 587.5C454 575 467 550 479.8 525C492.7 500 505.3 475 497.8 450C490.3 425 462.7 400 438.7 375C414.7 350 394.3 325 404.3 300C414.3 275 454.7 250 455.3 225C456 200 417 175 418.5 150C420 125 462 100 463 75C464 50 424 25 404 12.5L384 0L900 0L900 12.5C900 25 900 50 900 75C900 100 900 125 900 150C900 175 900 200 900 225C900 250 900 275 900 300C900 325 900 350 900 375C900 400 900 425 900 450C900 475 900 500 900 525C900 550 900 575 900 587.5L900 600Z" fill="#E6E6FA" stroke-linecap="round" stroke-linejoin="miter"></path></svg>