<svg id="visual" viewBox="0 0 900 600" width="900" height="600" xmlns="http://www.w3.org/2000/svg" xmlns:xlink="http://www.w3.org/1999/xlink" version="1.1"><rect x="0" y="0" width="900" height="600" fill="#FFB6C1"></rect><path d="M515 600L491 590.8C467 581.7 419 563.3 413.2 545.2C407.3 527 443.7 509 453.2 490.8C462.7 472.7 445.3 454.3 452.3 436.2C459.3 418 490.7 400 506 381.8C521.3 363.7 520.7 345.3 510 327.2C499.3 309 478.7 291 453.5 272.8C428.3 254.7 398.7 236.3 383.2 218.2C367.7 200 366.3 182 382.2 163.8C398 145.7 431 127.3 439.5 109.2C448 91 432 73 419.3 54.8C406.7 36.7 397.3 18.3 392.7 9.2L388 0L900 0L900 9.2C900 18.3 900 36.7 900 54.8C900 73 900 91 900 109.2C900 127.3 900 145.7 900 163.8C900 182 900 200 900 218.2C900 236.3 900 254.7 900 272.8C900 291 900 309 900 327.2C900 345.3 900 363.7 900 381.8C900 400 900 418 900 436.2C900 454.3 900 472.7 900 490.8C900 509 900 527 900 545.2C900 563.3 900 581.7 900 590.8L900 600Z" fill="#98FB98" stroke-linecap="round" stroke-linejoin="miter"></path></svg>