<svg id="visual" viewBox="0 0 900 600" width="900" height="600" xmlns="http://www.w3.org/2000/svg" xmlns:xlink="http://www.w3.org/1999/xlink" version="1.1"><rect x="0" y="0" width="900" height="600" fill="#FF964F"></rect><path d="M453 600L455 585.7C457 571.3 461 542.7 475.3 514.2C489.7 485.7 514.3 457.3 513.5 428.8C512.7 400.3 486.3 371.7 463.7 343C441 314.3 422 285.7 424.8 257C427.7 228.3 452.3 199.7 446.7 171.2C441 142.7 405 114.3 403.3 85.8C401.7 57.3 434.3 28.7 450.7 14.3L467 0L900 0L900 14.3C900 28.7 900 57.3 900 85.8C900 114.3 900 142.7 900 171.2C900 199.7 900 228.3 900 257C900 285.7 900 314.3 900 343C900 371.7 900 400.3 900 428.8C900 457.3 900 485.7 900 514.2C900 542.7 900 571.3 900 585.7L900 600Z" fill="#AFEEEE" stroke-linecap="round" stroke-linejoin="miter"></path></svg>