<?xml version="1.0" standalone="no"?>
<!DOCTYPE svg PUBLIC "-//W3C//DTD SVG 20010904//EN"
 "http://www.w3.org/TR/2001/REC-SVG-20010904/DTD/svg10.dtd">
<svg version="1.0" xmlns="http://www.w3.org/2000/svg"
 width="400.000000pt" height="400.000000pt" viewBox="0 0 400.000000 400.000000"
 preserveAspectRatio="xMidYMid meet">

<g transform="translate(0.000000,400.000000) scale(0.100000,-0.100000)"
fill="#000000" stroke="none">
<path d="M605 3350 c27 -12 43 -12 25 0 -8 5 -22 9 -30 9 -10 0 -8 -3 5 -9z"/>
<path d="M3332 3343 c-24 -8 -41 -17 -39 -19 2 -2 28 5 58 15 30 11 47 20 39
19 -8 0 -34 -6 -58 -15z"/>
<path d="M3451 3357 c2 -1 13 -9 24 -17 19 -14 19 -14 6 3 -7 9 -18 17 -24 17
-6 0 -8 -1 -6 -3z"/>
<path d="M510 3335 c-7 -8 -9 -15 -4 -15 4 0 3 -5 -4 -12 -7 -7 -12 -21 -11
-32 0 -14 2 -16 6 -6 9 30 28 65 38 72 6 5 6 8 -1 8 -6 0 -17 -7 -24 -15z"/>
<path d="M658 3333 c7 -3 16 -2 19 1 4 3 -2 6 -13 5 -11 0 -14 -3 -6 -6z"/>
<path d="M710 3316 c0 -2 7 -7 16 -10 8 -3 12 -2 9 4 -6 10 -25 14 -25 6z"/>
<path d="M3250 3310 c-8 -5 -10 -10 -5 -10 6 0 17 5 25 10 8 5 11 10 5 10 -5
0 -17 -5 -25 -10z"/>
<path d="M1773 3283 c-15 -23 -18 -50 -17 -180 0 -84 -3 -153 -7 -153 -31 0
-269 98 -415 172 -98 49 -114 47 -114 -17 0 -30 -4 -44 -11 -40 -7 5 -7 1 -1
-11 6 -11 19 -48 31 -83 35 -111 98 -198 219 -302 l54 -47 4 -148 c5 -175 8
-190 34 -204 18 -10 29 -1 92 65 40 42 91 87 113 101 41 24 187 86 190 82 1
-2 7 -48 14 -103 14 -121 35 -225 53 -263 10 -20 22 -28 45 -30 30 -3 38 4
118 105 48 59 125 166 171 236 85 128 86 128 109 113 82 -54 110 16 84 215
-14 109 -25 132 -108 220 -109 117 -349 248 -520 285 -97 20 -118 18 -138 -13z"/>
<path d="M758 3293 c7 -3 16 -2 19 1 4 3 -2 6 -13 5 -11 0 -14 -3 -6 -6z"/>
<path d="M835 3262 c16 -13 67 -33 61 -23 -3 5 -20 14 -38 20 -18 6 -28 8 -23
3z"/>
<path d="M3124 3255 c-10 -8 -14 -14 -9 -14 6 0 19 6 29 14 11 8 15 15 10 15
-6 0 -19 -7 -30 -15z"/>
<path d="M3003 3194 c-46 -25 -83 -47 -83 -50 0 -4 165 81 179 93 2 1 0 3 -5
3 -5 0 -46 -21 -91 -46z"/>
<path d="M911 3226 c10 -9 69 -36 69 -32 0 6 -55 36 -66 36 -4 0 -5 -2 -3 -4z"/>
<path d="M1010 3172 c0 -6 9 -12 20 -15 11 -3 20 -3 20 -1 0 2 -9 8 -20 14
-11 6 -20 7 -20 2z"/>
<path d="M1081 3137 c2 -1 13 -9 24 -17 19 -14 19 -14 6 3 -7 9 -18 17 -24 17
-6 0 -8 -1 -6 -3z"/>
<path d="M2878 3124 c-38 -20 -36 -28 2 -9 17 9 30 18 30 20 0 7 -1 6 -32 -11z"/>
<path d="M669 3106 c-27 -58 51 -425 128 -606 42 -97 102 -210 111 -210 4 1
28 29 54 64 110 146 264 285 375 339 24 12 43 24 43 28 0 4 -45 41 -100 81
-171 126 -492 309 -567 324 -28 6 -34 3 -44 -20z"/>
<path d="M3163 3076 c-168 -83 -430 -245 -526 -327 l-31 -26 50 -29 c126 -73
293 -226 379 -347 22 -31 44 -55 49 -54 13 4 89 155 127 251 70 180 133 499
110 559 -6 16 -18 27 -29 27 -11 0 -69 -24 -129 -54z"/>
<path d="M1150 3096 c0 -3 9 -10 20 -16 11 -6 20 -8 20 -6 0 3 -9 10 -20 16
-11 6 -20 8 -20 6z"/>
<path d="M2807 3084 c-15 -8 -27 -20 -27 -27 0 -9 2 -9 9 1 4 7 21 16 36 21
16 4 25 10 20 13 -6 3 -22 0 -38 -8z"/>
<path d="M3496 3034 c-4 -31 -5 -59 -2 -61 2 -3 8 21 11 52 4 31 5 58 3 61 -3
2 -8 -21 -12 -52z"/>
<path d="M490 3047 c0 -20 4 -38 9 -42 6 -3 7 10 4 32 -8 50 -13 55 -13 10z"/>
<path d="M2734 3034 c-18 -15 -18 -15 2 -5 12 6 25 7 29 3 5 -4 5 -1 1 6 -9
15 -8 15 -32 -4z"/>
<path d="M2679 2999 l-24 -20 28 17 c15 9 27 18 27 20 0 8 -8 4 -31 -17z"/>
<path d="M501 2950 c0 -33 1 -34 10 -11 6 16 6 28 -1 35 -7 7 -10 -1 -9 -24z"/>
<path d="M2605 2944 l-40 -36 43 32 c36 27 49 40 40 40 -2 0 -21 -16 -43 -36z"/>
<path d="M3482 2940 c0 -14 2 -19 5 -12 2 6 2 18 0 25 -3 6 -5 1 -5 -13z"/>
<path d="M2545 2900 c-3 -5 -1 -10 4 -10 6 0 11 5 11 10 0 6 -2 10 -4 10 -3 0
-8 -4 -11 -10z"/>
<path d="M511 2873 c1 -10 4 -29 8 -43 6 -23 8 -23 14 -6 4 11 3 22 -3 26 -6
4 -8 14 -4 23 3 10 1 17 -5 17 -6 0 -11 -8 -10 -17z"/>
<path d="M3466 2859 c-8 -42 0 -50 9 -9 4 17 5 34 2 36 -2 3 -7 -10 -11 -27z"/>
<path d="M3452 2780 c0 -14 2 -19 5 -12 2 6 2 18 0 25 -3 6 -5 1 -5 -13z"/>
<path d="M530 2771 c0 -11 4 -22 9 -25 4 -3 6 6 3 19 -5 30 -12 33 -12 6z"/>
<path d="M3435 2710 c-4 -17 -5 -34 -2 -36 2 -3 7 10 11 27 8 42 0 50 -9 9z"/>
<path d="M541 2720 c0 -8 4 -24 9 -35 5 -13 9 -14 9 -5 0 8 -4 24 -9 35 -5 13
-9 14 -9 5z"/>
<path d="M3414 2623 c-4 -21 -13 -50 -20 -64 -7 -15 -10 -29 -7 -33 4 -3 12
10 19 29 15 45 27 105 20 105 -3 0 -8 -17 -12 -37z"/>
<path d="M566 2620 c4 -19 10 -42 15 -50 13 -21 4 27 -10 60 -10 23 -10 22 -5
-10z"/>
<path d="M601 2490 c0 -8 6 -28 14 -45 l14 -30 -6 30 c-7 38 -22 68 -22 45z"/>
<path d="M3374 2478 c-4 -13 -7 -26 -6 -30 1 -5 -2 -8 -8 -8 -5 0 -10 -10 -10
-22 0 -25 -46 -122 -66 -139 -8 -6 -14 -16 -14 -22 0 -20 42 28 59 68 27 59
63 167 57 172 -2 2 -8 -6 -12 -19z"/>
<path d="M630 2400 c0 -5 5 -10 11 -10 5 0 7 5 4 10 -3 6 -8 10 -11 10 -2 0
-4 -4 -4 -10z"/>
<path d="M662 2329 c6 -16 12 -29 13 -27 6 6 -8 58 -16 58 -4 0 -3 -14 3 -31z"/>
<path d="M688 2273 c15 -28 85 -90 112 -98 13 -4 19 -12 16 -21 -3 -9 -1 -12
4 -9 18 11 10 33 -15 39 -13 3 -47 29 -76 58 -28 28 -47 42 -41 31z"/>
<path d="M3220 2210 c-19 -17 -40 -30 -47 -30 -15 0 -17 -26 -3 -35 6 -3 7 1
4 9 -4 10 -1 16 8 16 8 0 29 16 48 35 41 43 37 45 -10 5z"/>
<path d="M1458 2204 c-47 -25 -58 -61 -58 -182 0 -96 3 -113 21 -136 45 -57
118 -72 177 -36 51 31 64 75 60 198 l-3 104 -37 34 c-32 29 -45 34 -85 34 -27
-1 -60 -7 -75 -16z"/>
<path d="M2385 2198 c-41 -32 -55 -76 -55 -175 0 -105 18 -149 70 -175 65 -33
136 -13 177 49 27 41 26 226 -1 266 -40 59 -138 77 -191 35z"/>
<path d="M788 2108 c-22 -34 -42 -74 -31 -63 14 15 55 85 50 85 -3 0 -11 -10
-19 -22z"/>
<path d="M3201 2093 c35 -59 49 -78 49 -69 0 11 -60 106 -67 106 -2 0 6 -17
18 -37z"/>
<path d="M725 1991 c-6 -10 -18 -34 -29 -52 -23 -42 -16 -36 19 15 14 21 25
42 23 47 -2 5 -8 1 -13 -10z"/>
<path d="M3250 1998 c0 -9 7 -19 16 -22 15 -6 15 -4 3 11 -7 10 -15 20 -16 22
-2 2 -3 -3 -3 -11z"/>
<path d="M3280 1954 c0 -6 7 -19 16 -30 14 -18 14 -18 3 6 -14 31 -19 36 -19
24z"/>
<path d="M830 1865 c-11 -13 -10 -14 4 -9 9 3 16 10 16 15 0 13 -6 11 -20 -6z"/>
<path d="M3155 1860 c11 -13 31 -36 44 -50 l24 -25 -21 30 c-11 17 -30 39 -43
50 l-24 20 20 -25z"/>
<path d="M785 1810 c-3 -5 -1 -10 4 -10 6 0 11 5 11 10 0 6 -2 10 -4 10 -3 0
-8 -4 -11 -10z"/>
<path d="M759 1773 c-13 -16 -12 -17 4 -4 9 7 17 15 17 17 0 8 -8 3 -21 -13z"/>
<path d="M3229 1762 c6 -12 16 -24 22 -28 8 -4 8 -1 0 14 -6 12 -16 24 -22 28
-8 4 -8 1 0 -14z"/>
<path d="M1171 1749 c-72 -13 -80 -22 -11 -13 68 10 160 10 220 1 36 -5 40 -4
20 4 -36 15 -167 19 -229 8z"/>
<path d="M2621 1750 c-59 -13 -67 -23 -11 -14 55 10 147 10 220 1 42 -4 48 -4
25 3 -45 15 -184 20 -234 10z"/>
<path d="M730 1735 c-7 -8 -9 -15 -6 -15 4 0 -2 -10 -14 -22 -11 -12 -20 -26
-20 -31 0 -12 45 44 53 66 8 21 3 22 -13 2z"/>
<path d="M1002 1718 c-24 -5 -42 -12 -39 -14 5 -5 107 16 107 22 0 6 -17 4
-68 -8z"/>
<path d="M1447 1706 c11 -13 34 -70 53 -125 18 -56 35 -99 37 -97 6 6 -56 186
-75 219 -9 15 -20 27 -25 27 -5 0 0 -11 10 -24z"/>
<path d="M2975 1711 c39 -11 85 -24 104 -30 19 -6 36 -9 38 -7 7 6 -137 48
-176 52 -21 2 -7 -5 34 -15z"/>
<path d="M2509 1654 c-16 -37 -32 -78 -35 -93 -3 -14 10 11 29 55 19 45 37 87
41 93 4 6 4 11 1 11 -3 0 -19 -30 -36 -66z"/>
<path d="M881 1680 c-30 -11 -60 -25 -65 -31 -6 -6 7 -3 29 6 22 9 55 21 73
27 17 5 32 11 32 13 0 8 -13 5 -69 -15z"/>
<path d="M3286 1677 c3 -10 9 -15 12 -12 3 3 0 11 -7 18 -10 9 -11 8 -5 -6z"/>
<path d="M3130 1667 c0 -2 35 -21 77 -43 43 -21 100 -61 129 -90 29 -27 49
-43 45 -33 -14 38 -251 195 -251 166z"/>
<path d="M730 1604 c-30 -20 -62 -42 -71 -51 -11 -9 -19 -11 -22 -3 -3 6 -4 5
-3 -2 2 -7 -3 -17 -10 -23 -6 -5 -15 -21 -19 -35 -6 -22 -5 -22 13 6 22 34 74
77 142 117 25 15 40 27 35 27 -6 0 -35 -16 -65 -36z"/>
<path d="M656 1603 c-6 -14 -5 -15 5 -6 7 7 10 15 7 18 -3 3 -9 -2 -12 -12z"/>
<path d="M3320 1611 c0 -5 5 -13 10 -16 6 -3 10 -2 10 4 0 5 -4 13 -10 16 -5
3 -10 2 -10 -4z"/>
<path d="M2440 1463 c-13 -37 -31 -85 -41 -105 -26 -51 -23 -63 3 -13 24 45
70 176 64 182 -2 2 -14 -26 -26 -64z"/>
<path d="M760 1500 c-94 -31 -168 -67 -179 -88 -6 -12 -10 -38 -10 -59 2 -33
3 -34 6 -8 10 79 3 72 128 125 64 26 135 44 135 34 0 -3 -7 -19 -16 -35 -8
-17 -14 -34 -12 -39 2 -4 13 14 25 41 l22 49 -22 -1 c-12 0 -47 -8 -77 -19z"/>
<path d="M3154 1472 c14 -28 26 -60 26 -71 0 -13 5 -18 14 -15 11 4 7 17 -15
57 -16 29 -29 55 -29 59 0 6 32 3 75 -8 17 -4 17 -3 4 5 -9 6 -35 13 -58 17
l-43 7 26 -51z"/>
<path d="M3327 1455 c41 -19 56 -33 68 -61 19 -47 19 -54 -2 -54 -17 -1 -17
-1 0 -11 28 -16 31 -4 17 54 -12 52 -14 55 -63 73 -74 27 -79 27 -20 -1z"/>
<path d="M1546 1450 c18 -76 138 -280 165 -280 5 0 9 -10 9 -23 0 -59 159
-256 241 -297 33 -17 37 -17 68 -2 74 35 241 236 241 288 0 11 18 40 40 63 37
38 77 101 66 101 -3 0 -12 -12 -20 -27 -8 -16 -30 -45 -48 -65 -33 -35 -36
-36 -74 -28 -50 12 -427 12 -477 1 -36 -9 -39 -7 -78 38 -36 39 -63 90 -128
231 l-11 25 6 -25z"/>
<path d="M795 1400 c-3 -5 -1 -10 4 -10 6 0 11 5 11 10 0 6 -2 10 -4 10 -3 0
-8 -4 -11 -10z"/>
<path d="M735 1390 c-3 -5 -2 -10 4 -10 5 0 13 5 16 10 3 6 2 10 -4 10 -5 0
-13 -4 -16 -10z"/>
<path d="M3250 1390 c-9 -6 -10 -10 -3 -10 6 0 15 5 18 10 8 12 4 12 -15 0z"/>
<path d="M698 1373 c7 -3 16 -2 19 1 4 3 -2 6 -13 5 -11 0 -14 -3 -6 -6z"/>
<path d="M625 1351 c-22 -11 -35 -19 -30 -19 14 -1 93 36 80 37 -5 0 -28 -8
-50 -18z"/>
<path d="M1042 1362 c-13 -4 34 -7 103 -7 69 0 116 3 103 7 -13 3 -59 6 -103
6 -44 0 -90 -3 -103 -6z"/>
<path d="M2712 1350 c-78 -28 -119 -56 -126 -88 -12 -51 -50 -137 -83 -189
-18 -29 -30 -53 -28 -53 15 0 84 127 105 194 l25 77 65 32 c62 30 71 32 183
32 65 0 108 3 95 7 -50 14 -183 7 -236 -12z"/>
<path d="M3310 1367 c0 -3 15 -10 32 -16 18 -6 28 -7 23 -2 -12 10 -55 25 -55
18z"/>
<path d="M952 1333 c-24 -8 -41 -17 -39 -19 4 -5 97 26 97 32 0 6 -11 4 -58
-13z"/>
<path d="M1280 1346 c0 -2 24 -16 54 -30 48 -23 55 -31 65 -69 6 -23 15 -49
21 -57 14 -21 12 -9 -4 38 -8 22 -12 42 -10 45 7 7 -48 45 -90 62 -20 9 -36
13 -36 11z"/>
<path d="M3005 1336 c17 -7 41 -16 55 -20 20 -5 19 -3 -5 8 -16 7 -41 16 -55
20 -20 5 -19 3 5 -8z"/>
<path d="M875 1301 c-6 -5 -32 -20 -58 -34 -27 -14 -44 -28 -38 -31 5 -4 12
-2 16 4 4 6 29 22 56 35 46 24 59 35 41 35 -4 0 -12 -4 -17 -9z"/>
<path d="M3090 1307 c0 -3 25 -19 55 -35 30 -17 55 -27 55 -23 0 4 -21 18 -47
31 -65 33 -63 32 -63 27z"/>
<path d="M2828 1253 c23 -2 61 -2 85 0 23 2 4 4 -43 4 -47 0 -66 -2 -42 -4z"/>
<path d="M2970 1250 c-13 -8 -12 -10 3 -10 9 0 17 5 17 10 0 12 -1 12 -20 0z"/>
<path d="M1073 1243 c15 -2 37 -2 50 0 12 2 0 4 -28 4 -27 0 -38 -2 -22 -4z"/>
<path d="M3208 1205 c-2 -25 0 -45 4 -45 5 0 8 20 8 45 0 25 -2 45 -4 45 -2 0
-6 -20 -8 -45z"/>
<path d="M945 1225 c-54 -17 -33 -18 30 -1 28 8 41 14 30 14 -11 0 -38 -5 -60
-13z"/>
<path d="M1180 1237 c7 -8 120 -46 120 -41 0 2 -15 10 -32 17 -37 16 -96 31
-88 24z"/>
<path d="M2697 1215 c-20 -14 -37 -30 -37 -35 0 -6 8 -2 18 8 9 9 29 25 42 34
14 9 23 17 20 17 -3 1 -22 -10 -43 -24z"/>
<path d="M3035 1225 c17 -8 37 -14 45 -14 8 0 -1 7 -20 14 -46 18 -64 17 -25
0z"/>
<path d="M796 1175 c-25 -19 -17 -19 25 0 24 10 28 14 14 14 -11 0 -29 -6 -39
-14z"/>
<path d="M1324 1152 c9 -23 20 -50 26 -60 10 -15 11 -15 5 3 -23 67 -29 81
-37 90 -5 5 -2 -9 6 -33z"/>
<path d="M3160 1180 c8 -5 20 -10 25 -10 6 0 3 5 -5 10 -8 5 -19 10 -25 10 -5
0 -3 -5 5 -10z"/>
<path d="M1430 1167 c0 -4 13 -34 30 -67 36 -71 131 -176 205 -224 57 -39 110
-63 100 -46 -3 6 -11 10 -17 10 -24 0 -141 85 -191 139 -29 32 -69 88 -89 127
-21 38 -38 65 -38 61z"/>
<path d="M2628 1105 c-10 -13 -18 -31 -18 -39 0 -9 -4 -16 -10 -16 -5 0 -10
-9 -10 -20 0 -11 -4 -20 -10 -20 -5 0 -10 -6 -10 -14 0 -7 -11 -25 -26 -41
-14 -15 -23 -29 -20 -32 7 -8 65 77 97 141 32 65 34 77 7 41z"/>
<path d="M1384 1023 c9 -17 20 -35 26 -38 18 -11 10 9 -16 40 l-26 30 16 -32z"/>
<path d="M2447 996 c-3 -8 -40 -42 -82 -75 -82 -65 -93 -83 -16 -27 56 42 129
116 114 116 -6 0 -13 -7 -16 -14z"/>
<path d="M1457 915 c21 -31 127 -135 137 -135 3 0 6 5 6 10 0 6 -7 10 -15 10
-8 0 -15 7 -15 15 0 8 -5 15 -11 15 -6 0 -36 26 -67 58 -30 31 -46 43 -35 27z"/>
<path d="M2489 883 l-24 -28 28 24 c15 14 27 26 27 28 0 8 -8 1 -31 -24z"/>
<path d="M2235 839 c-22 -10 -34 -19 -27 -19 15 0 72 28 72 35 0 6 3 7 -45
-16z"/>
<path d="M2400 798 c-25 -22 -36 -36 -25 -30 19 10 84 72 74 72 -2 -1 -24 -19
-49 -42z"/>
<path d="M1820 802 c52 -25 302 -25 345 1 17 10 21 15 10 12 -44 -15 -64 -17
-158 -22 -58 -3 -116 -1 -145 6 -83 21 -88 21 -52 3z"/>
<path d="M1610 776 c0 -2 8 -10 18 -17 15 -13 16 -12 3 4 -13 16 -21 21 -21
13z"/>
<path d="M2335 750 c-3 -5 -15 -10 -26 -10 -10 0 -19 -4 -19 -10 0 -5 4 -10 9
-10 10 0 59 39 49 40 -4 0 -10 -4 -13 -10z"/>
<path d="M1650 745 c0 -2 18 -14 40 -25 22 -11 40 -18 40 -15 0 2 -18 14 -40
25 -22 11 -40 18 -40 15z"/>
<path d="M2190 684 c-36 -13 -50 -21 -31 -18 37 7 101 31 101 39 0 3 -1 5 -2
4 -2 -1 -32 -12 -68 -25z"/>
<path d="M1755 690 c27 -12 43 -12 25 0 -8 5 -22 9 -30 9 -10 0 -8 -3 5 -9z"/>
<path d="M1820 670 c8 -5 22 -9 30 -9 10 0 8 3 -5 9 -27 12 -43 12 -25 0z"/>
<path d="M1912 648 c13 -3 50 -6 83 -6 33 0 70 3 83 6 13 4 -25 7 -83 7 -58 0
-96 -3 -83 -7z"/>
</g>
</svg>
