<svg id="visual" viewBox="0 0 540 960" width="540" height="960" xmlns="http://www.w3.org/2000/svg" xmlns:xlink="http://www.w3.org/1999/xlink" version="1.1"><rect x="0" y="0" width="540" height="960" fill="#ffffff"></rect><path d="M0 289L18 306.3C36 323.7 72 358.3 108 337.2C144 316 180 239 216 237.2C252 235.3 288 308.7 324 312.5C360 316.3 396 250.7 432 222.3C468 194 504 203 522 207.5L540 212L540 961L522 961C504 961 468 961 432 961C396 961 360 961 324 961C288 961 252 961 216 961C180 961 144 961 108 961C72 961 36 961 18 961L0 961Z" fill="#9562d9"></path><path d="M0 363L18 393.7C36 424.3 72 485.7 108 510C144 534.3 180 521.7 216 483.3C252 445 288 381 324 392.5C360 404 396 491 432 527.5C468 564 504 550 522 543L540 536L540 961L522 961C504 961 468 961 432 961C396 961 360 961 324 961C288 961 252 961 216 961C180 961 144 961 108 961C72 961 36 961 18 961L0 961Z" fill="#8759c5"></path><path d="M0 477L18 509.3C36 541.7 72 606.3 108 629.8C144 653.3 180 635.7 216 604.5C252 573.3 288 528.7 324 513.8C360 499 396 514 432 538.8C468 563.7 504 598.3 522 615.7L540 633L540 961L522 961C504 961 468 961 432 961C396 961 360 961 324 961C288 961 252 961 216 961C180 961 144 961 108 961C72 961 36 961 18 961L0 961Z" fill="#7a50b1"></path><path d="M0 581L18 582.3C36 583.7 72 586.3 108 594C144 601.7 180 614.3 216 636.2C252 658 288 689 324 706.3C360 723.7 396 727.3 432 732.7C468 738 504 745 522 748.5L540 752L540 961L522 961C504 961 468 961 432 961C396 961 360 961 324 961C288 961 252 961 216 961C180 961 144 961 108 961C72 961 36 961 18 961L0 961Z" fill="#6d479e"></path><path d="M0 795L18 790.7C36 786.3 72 777.7 108 790.3C144 803 180 837 216 848C252 859 288 847 324 831.7C360 816.3 396 797.7 432 789.7C468 781.7 504 784.3 522 785.7L540 787L540 961L522 961C504 961 468 961 432 961C396 961 360 961 324 961C288 961 252 961 216 961C180 961 144 961 108 961C72 961 36 961 18 961L0 961Z" fill="#603f8b"></path></svg>