<svg id="visual" viewBox="0 0 540 960" width="540" height="960" xmlns="http://www.w3.org/2000/svg" xmlns:xlink="http://www.w3.org/1999/xlink" version="1.1"><rect x="0" y="0" width="540" height="960" fill="#ffffff"></rect><path d="M0 179L30 187.2C60 195.3 120 211.7 180 234.5C240 257.3 300 286.7 360 290.7C420 294.7 480 273.3 510 262.7L540 252L540 961L510 961C480 961 420 961 360 961C300 961 240 961 180 961C120 961 60 961 30 961L0 961Z" fill="#fd49a0"></path><path d="M0 459L30 462.5C60 466 120 473 180 452.2C240 431.3 300 382.7 360 375C420 367.3 480 400.7 510 417.3L540 434L540 961L510 961C480 961 420 961 360 961C300 961 240 961 180 961C120 961 60 961 30 961L0 961Z" fill="#d746a3"></path><path d="M0 637L30 629.8C60 622.7 120 608.3 180 614.8C240 621.3 300 648.7 360 632.7C420 616.7 480 557.3 510 527.7L540 498L540 961L510 961C480 961 420 961 360 961C300 961 240 961 180 961C120 961 60 961 30 961L0 961Z" fill="#af45a0"></path><path d="M0 769L30 753C60 737 120 705 180 696.2C240 687.3 300 701.7 360 712.7C420 723.7 480 731.3 510 735.2L540 739L540 961L510 961C480 961 420 961 360 961C300 961 240 961 180 961C120 961 60 961 30 961L0 961Z" fill="#874398"></path><path d="M0 794L30 803.3C60 812.7 120 831.3 180 820.7C240 810 300 770 360 761.3C420 752.7 480 775.3 510 786.7L540 798L540 961L510 961C480 961 420 961 360 961C300 961 240 961 180 961C120 961 60 961 30 961L0 961Z" fill="#603f8b"></path></svg>