<svg id="visual" viewBox="0 0 900 600" width="900" height="600" xmlns="http://www.w3.org/2000/svg" xmlns:xlink="http://www.w3.org/1999/xlink" version="1.1"><path d="M0 31L30 30C60 29 120 27 180 32C240 37 300 49 360 55C420 61 480 61 540 58C600 55 660 49 720 43C780 37 840 31 870 28L900 25L900 0L870 0C840 0 780 0 720 0C660 0 600 0 540 0C480 0 420 0 360 0C300 0 240 0 180 0C120 0 60 0 30 0L0 0Z" fill="#603f8b"></path><path d="M0 169L30 161C60 153 120 137 180 140C240 143 300 165 360 181C420 197 480 207 540 198C600 189 660 161 720 164C780 167 840 201 870 218L900 235L900 23L870 26C840 29 780 35 720 41C660 47 600 53 540 56C480 59 420 59 360 53C300 47 240 35 180 30C120 25 60 27 30 28L0 29Z" fill="#573981"></path><path d="M0 247L30 237C60 227 120 207 180 201C240 195 300 203 360 215C420 227 480 243 540 242C600 241 660 223 720 227C780 231 840 257 870 270L900 283L900 233L870 216C840 199 780 165 720 162C660 159 600 187 540 196C480 205 420 195 360 179C300 163 240 141 180 138C120 135 60 151 30 159L0 167Z" fill="#4e3376"></path><path d="M0 397L30 388C60 379 120 361 180 365C240 369 300 395 360 403C420 411 480 401 540 390C600 379 660 367 720 362C780 357 840 359 870 360L900 361L900 281L870 268C840 255 780 229 720 225C660 221 600 239 540 240C480 241 420 225 360 213C300 201 240 193 180 199C120 205 60 225 30 235L0 245Z" fill="#452d6c"></path><path d="M0 451L30 453C60 455 120 459 180 472C240 485 300 507 360 504C420 501 480 473 540 459C600 445 660 445 720 444C780 443 840 441 870 440L900 439L900 359L870 358C840 357 780 355 720 360C660 365 600 377 540 388C480 399 420 409 360 401C300 393 240 367 180 363C120 359 60 377 30 386L0 395Z" fill="#3c2762"></path><path d="M0 505L30 504C60 503 120 501 180 511C240 521 300 543 360 546C420 549 480 533 540 522C600 511 660 505 720 506C780 507 840 515 870 519L900 523L900 437L870 438C840 439 780 441 720 442C660 443 600 443 540 457C480 471 420 499 360 502C300 505 240 483 180 470C120 457 60 453 30 451L0 449Z" fill="#342258"></path><path d="M0 601L30 601C60 601 120 601 180 601C240 601 300 601 360 601C420 601 480 601 540 601C600 601 660 601 720 601C780 601 840 601 870 601L900 601L900 521L870 517C840 513 780 505 720 504C660 503 600 509 540 520C480 531 420 547 360 544C300 541 240 519 180 509C120 499 60 501 30 502L0 503Z" fill="#2c1c4e"></path></svg>