<svg id="visual" viewBox="0 0 900 600" width="900" height="600" xmlns="http://www.w3.org/2000/svg" xmlns:xlink="http://www.w3.org/1999/xlink" version="1.1"><rect x="0" y="0" width="900" height="600" fill="#fff07b"></rect><path d="M407 600L427 600L427 573L432 573L432 545L360 545L360 518L481 518L481 491L507 491L507 464L541 464L541 436L411 436L411 409L550 409L550 382L474 382L474 355L472 355L472 327L349 327L349 300L480 300L480 273L550 273L550 245L371 245L371 218L513 218L513 191L392 191L392 164L520 164L520 136L372 136L372 109L389 109L389 82L452 82L452 55L466 55L466 27L504 27L504 0L900 0L900 27L900 27L900 55L900 55L900 82L900 82L900 109L900 109L900 136L900 136L900 164L900 164L900 191L900 191L900 218L900 218L900 245L900 245L900 273L900 273L900 300L900 300L900 327L900 327L900 355L900 355L900 382L900 382L900 409L900 409L900 436L900 436L900 464L900 464L900 491L900 491L900 518L900 518L900 545L900 545L900 573L900 573L900 600L900 600Z" fill="#b2ff91"></path><path d="M572 600L632 600L632 573L555 573L555 545L601 545L601 518L568 518L568 491L506 491L506 464L481 464L481 436L622 436L622 409L519 409L519 382L531 382L531 355L600 355L600 327L632 327L632 300L538 300L538 273L623 273L623 245L603 245L603 218L579 218L579 191L515 191L515 164L512 164L512 136L502 136L502 109L501 109L501 82L450 82L450 55L548 55L548 27L554 27L554 0L900 0L900 27L900 27L900 55L900 55L900 82L900 82L900 109L900 109L900 136L900 136L900 164L900 164L900 191L900 191L900 218L900 218L900 245L900 245L900 273L900 273L900 300L900 300L900 327L900 327L900 355L900 355L900 382L900 382L900 409L900 409L900 436L900 436L900 464L900 464L900 491L900 491L900 518L900 518L900 545L900 545L900 573L900 573L900 600L900 600Z" fill="#b2ff91"></path><path d="M565 600L564 600L564 573L568 573L568 545L541 545L541 518L551 518L551 491L555 491L555 464L667 464L667 436L697 436L697 409L626 409L626 382L637 382L637 355L584 355L584 327L668 327L668 300L550 300L550 273L579 273L579 245L625 245L625 218L692 218L692 191L598 191L598 164L646 164L646 136L557 136L557 109L649 109L649 82L610 82L610 55L617 55L617 27L608 27L608 0L900 0L900 27L900 27L900 55L900 55L900 82L900 82L900 109L900 109L900 136L900 136L900 164L900 164L900 191L900 191L900 218L900 218L900 245L900 245L900 273L900 273L900 300L900 300L900 327L900 327L900 355L900 355L900 382L900 382L900 409L900 409L900 436L900 436L900 464L900 464L900 491L900 491L900 518L900 518L900 545L900 545L900 573L900 573L900 600L900 600Z" fill="#b2ff91"></path><path d="M640 600L771 600L771 573L703 573L703 545L713 545L713 518L661 518L661 491L694 491L694 464L708 464L708 436L693 436L693 409L688 409L688 382L704 382L704 355L726 355L726 327L727 327L727 300L727 300L727 273L676 273L676 245L683 245L683 218L638 218L638 191L779 191L779 164L640 164L640 136L769 136L769 109L655 109L655 82L754 82L754 55L699 55L699 27L736 27L736 0L900 0L900 27L900 27L900 55L900 55L900 82L900 82L900 109L900 109L900 136L900 136L900 164L900 164L900 191L900 191L900 218L900 218L900 245L900 245L900 273L900 273L900 300L900 300L900 327L900 327L900 355L900 355L900 382L900 382L900 409L900 409L900 436L900 436L900 464L900 464L900 491L900 491L900 518L900 518L900 545L900 545L900 573L900 573L900 600L900 600Z" fill="#b2ff91"></path><path d="M774 600L845 600L845 573L747 573L747 545L761 545L761 518L824 518L824 491L770 491L770 464L769 464L769 436L755 436L755 409L738 409L738 382L792 382L792 355L736 355L736 327L774 327L774 300L763 300L763 273L811 273L811 245L819 245L819 218L794 218L794 191L746 191L746 164L851 164L851 136L853 136L853 109L818 109L818 82L777 82L777 55L827 55L827 27L849 27L849 0L900 0L900 27L900 27L900 55L900 55L900 82L900 82L900 109L900 109L900 136L900 136L900 164L900 164L900 191L900 191L900 218L900 218L900 245L900 245L900 273L900 273L900 300L900 300L900 327L900 327L900 355L900 355L900 382L900 382L900 409L900 409L900 436L900 436L900 464L900 464L900 491L900 491L900 518L900 518L900 545L900 545L900 573L900 573L900 600L900 600Z" fill="#b2ff91"></path></svg>