<svg id="visual" viewBox="0 0 900 600" width="900" height="600" xmlns="http://www.w3.org/2000/svg" xmlns:xlink="http://www.w3.org/1999/xlink" version="1.1"><rect x="0" y="0" width="900" height="600" fill="#b2ff91"></rect><path d="M480 600L464 560L369 520L369 480L453 440L418 400L366 360L382 320L415 280L473 240L447 200L483 160L450 120L410 80L457 40L352 0L900 0L900 40L900 80L900 120L900 160L900 200L900 240L900 280L900 320L900 360L900 400L900 440L900 480L900 520L900 560L900 600Z" fill="#ff964f"></path><path d="M485 600L545 560L560 520L551 480L493 440L543 400L479 360L542 320L523 280L478 240L561 200L457 160L474 120L556 80L494 40L534 0L900 0L900 40L900 80L900 120L900 160L900 200L900 240L900 280L900 320L900 360L900 400L900 440L900 480L900 520L900 560L900 600Z" fill="#ff964f"></path><path d="M630 600L596 560L588 520L622 480L600 440L589 400L565 360L598 320L562 280L637 240L616 200L619 160L560 120L608 80L599 40L646 0L900 0L900 40L900 80L900 120L900 160L900 200L900 240L900 280L900 320L900 360L900 400L900 440L900 480L900 520L900 560L900 600Z" fill="#ff964f"></path><path d="M706 600L683 560L730 520L668 480L729 440L724 400L726 360L711 320L711 280L702 240L657 200L665 160L733 120L721 80L668 40L672 0L900 0L900 40L900 80L900 120L900 160L900 200L900 240L900 280L900 320L900 360L900 400L900 440L900 480L900 520L900 560L900 600Z" fill="#ff964f"></path><path d="M797 600L776 560L762 520L772 480L759 440L751 400L752 360L758 320L759 280L793 240L762 200L805 160L787 120L804 80L806 40L796 0L900 0L900 40L900 80L900 120L900 160L900 200L900 240L900 280L900 320L900 360L900 400L900 440L900 480L900 520L900 560L900 600Z" fill="#ff964f"></path></svg>