<svg id="visual" viewBox="0 0 900 600" width="900" height="600" xmlns="http://www.w3.org/2000/svg" xmlns:xlink="http://www.w3.org/1999/xlink" version="1.1"><rect x="0" y="0" width="900" height="600" fill="#FF964F"></rect><path d="M342 600L364 593.8C386 587.7 430 575.3 436 562.8C442 550.3 410 537.7 388.3 525.2C366.7 512.7 355.3 500.3 375 487.8C394.7 475.3 445.3 462.7 472.3 450.2C499.3 437.7 502.7 425.3 513.8 412.8C525 400.3 544 387.7 540.7 375.2C537.3 362.7 511.7 350.3 493.2 337.8C474.7 325.3 463.3 312.7 457.2 300.2C451 287.7 450 275.3 436 262.8C422 250.3 395 237.7 404.5 225.2C414 212.7 460 200.3 494.8 187.8C529.7 175.3 553.3 162.7 562.2 150.2C571 137.7 565 125.3 533.3 112.8C501.7 100.3 444.3 87.7 428.7 75.2C413 62.7 439 50.3 464 37.8C489 25.3 513 12.7 525 6.3L537 0L900 0L900 6.3C900 12.7 900 25.3 900 37.8C900 50.3 900 62.7 900 75.2C900 87.7 900 100.3 900 112.8C900 125.3 900 137.7 900 150.2C900 162.7 900 175.3 900 187.8C900 200.3 900 212.7 900 225.2C900 237.7 900 250.3 900 262.8C900 275.3 900 287.7 900 300.2C900 312.7 900 325.3 900 337.8C900 350.3 900 362.7 900 375.2C900 387.7 900 400.3 900 412.8C900 425.3 900 437.7 900 450.2C900 462.7 900 475.3 900 487.8C900 500.3 900 512.7 900 525.2C900 537.7 900 550.3 900 562.8C900 575.3 900 587.7 900 593.8L900 600Z" fill="#afeeee"></path><path d="M747 600L729.8 593.8C712.7 587.7 678.3 575.3 661.8 562.8C645.3 550.3 646.7 537.7 655.8 525.2C665 512.7 682 500.3 670.5 487.8C659 475.3 619 462.7 627.3 450.2C635.7 437.7 692.3 425.3 719.8 412.8C747.3 400.3 745.7 387.7 740.2 375.2C734.7 362.7 725.3 350.3 719.5 337.8C713.7 325.3 711.3 312.7 697.5 300.2C683.7 287.7 658.3 275.3 670.2 262.8C682 250.3 731 237.7 717.3 225.2C703.7 212.7 627.3 200.3 618.3 187.8C609.3 175.3 667.7 162.7 675 150.2C682.3 137.7 638.7 125.3 637 112.8C635.3 100.3 675.7 87.7 693 75.2C710.3 62.7 704.7 50.3 690.5 37.8C676.3 25.3 653.7 12.7 642.3 6.3L631 0L900 0L900 6.3C900 12.7 900 25.3 900 37.8C900 50.3 900 62.7 900 75.2C900 87.7 900 100.3 900 112.8C900 125.3 900 137.7 900 150.2C900 162.7 900 175.3 900 187.8C900 200.3 900 212.7 900 225.2C900 237.7 900 250.3 900 262.8C900 275.3 900 287.7 900 300.2C900 312.7 900 325.3 900 337.8C900 350.3 900 362.7 900 375.2C900 387.7 900 400.3 900 412.8C900 425.3 900 437.7 900 450.2C900 462.7 900 475.3 900 487.8C900 500.3 900 512.7 900 525.2C900 537.7 900 550.3 900 562.8C900 575.3 900 587.7 900 593.8L900 600Z" fill="#afeeee"></path></svg>